<svg width="33" height="33" viewBox="0 0 33 33" fill="none" xmlns="http://www.w3.org/2000/svg">
<path d="M4.125 16.5C2.6125 16.5 1.375 15.2625 1.375 13.75V6.875C1.375 5.3625 2.6125 4.125 4.125 4.125H15.125C16.6375 4.125 17.875 5.3625 17.875 6.875V13.75C17.875 15.2625 16.6375 16.5 15.125 16.5H12.375V20.625L8.25 16.5H4.125ZM28.875 24.75C30.3875 24.75 31.625 23.5125 31.625 22V15.125C31.625 13.6125 30.3875 12.375 28.875 12.375H20.625V13.75C20.625 16.775 18.15 19.25 15.125 19.25V22C15.125 23.5125 16.3625 24.75 17.875 24.75H20.625V28.875L24.75 24.75H28.875Z" fill="#E8E1F1"/>
</svg>
