<svg width="28" height="19" viewBox="0 0 28 19" fill="none" xmlns="http://www.w3.org/2000/svg">
<path d="M8.4 9.5C11.1081 9.5 13.3 7.37522 13.3 4.75C13.3 2.12478 11.1081 0 8.4 0C5.69187 0 3.5 2.12478 3.5 4.75C3.5 7.37522 5.69187 9.5 8.4 9.5ZM11.76 10.8571H11.3969C10.4869 11.2812 9.47625 11.5357 8.4 11.5357C7.32375 11.5357 6.3175 11.2812 5.40312 10.8571H5.04C2.2575 10.8571 0 13.0455 0 15.7429V16.9643C0 18.0882 0.940625 19 2.1 19H14.7C15.8594 19 16.8 18.0882 16.8 16.9643V15.7429C16.8 13.0455 14.5425 10.8571 11.76 10.8571ZM21 9.5C23.3188 9.5 25.2 7.67634 25.2 5.42857C25.2 3.1808 23.3188 1.35714 21 1.35714C18.6812 1.35714 16.8 3.1808 16.8 5.42857C16.8 7.67634 18.6812 9.5 21 9.5ZM23.1 10.8571H22.9338C22.3256 11.0607 21.6825 11.1964 21 11.1964C20.3175 11.1964 19.6744 11.0607 19.0662 10.8571H18.9C18.0075 10.8571 17.185 11.1074 16.4631 11.5103C17.5306 12.6257 18.2 14.1058 18.2 15.7429V17.3714C18.2 17.4647 18.1781 17.5538 18.1737 17.6429H25.9C27.0594 17.6429 28 16.731 28 15.6071C28 12.9819 25.8081 10.8571 23.1 10.8571Z" fill="#E8E1F1"/>
</svg>
