<svg width="30" height="26" viewBox="0 0 30 26" fill="none" xmlns="http://www.w3.org/2000/svg">
<path d="M25.7181 14.9758V24.703C25.7181 25.0543 25.6003 25.3583 25.3646 25.615C25.1289 25.8717 24.8498 26 24.5272 26H17.3818V18.2182H12.6182V26H5.47278C5.15024 26 4.87112 25.8717 4.63542 25.615C4.39972 25.3583 4.28187 25.0543 4.28187 24.703V14.9758C4.28187 14.9623 4.28498 14.9421 4.29118 14.915C4.29738 14.888 4.30048 14.8678 4.30048 14.8542L15 5.24864L25.6995 14.8542C25.7119 14.8813 25.7181 14.9218 25.7181 14.9758ZM29.8677 13.5776L28.714 15.0772C28.6147 15.1988 28.4845 15.2731 28.3232 15.3001H28.2674C28.1061 15.3001 27.9759 15.2528 27.8766 15.1582L15 3.46532L2.12336 15.1582C1.9745 15.2663 1.82564 15.3136 1.67677 15.3001C1.51551 15.2731 1.38525 15.1988 1.28601 15.0772L0.132323 13.5776C0.0330806 13.4425 -0.0103377 13.2837 0.00206754 13.1013C0.0144728 12.9189 0.0827016 12.7737 0.206754 12.6656L13.5858 0.52689C13.9828 0.17563 14.4542 0 15 0C15.5458 0 16.0172 0.17563 16.4142 0.52689L20.9545 4.66095V0.709275C20.9545 0.520135 21.0103 0.36477 21.122 0.24318C21.2336 0.12159 21.3763 0.060795 21.55 0.060795H25.1227C25.2963 0.060795 25.439 0.12159 25.5507 0.24318C25.6623 0.36477 25.7181 0.520135 25.7181 0.709275V8.9774L29.7932 12.6656C29.9173 12.7737 29.9855 12.9189 29.9979 13.1013C30.0103 13.2837 29.9669 13.4425 29.8677 13.5776Z" fill="#E8E1F1"/>
</svg>
