<svg width="19" height="17" viewBox="0 0 19 17" fill="none" xmlns="http://www.w3.org/2000/svg">
<path d="M3.4732 16.7711C3.3368 16.8876 3.16939 16.9634 2.99063 16.9897C2.81187 17.016 2.62918 16.9917 2.464 16.9196C2.29883 16.8475 2.15802 16.7307 2.05812 16.5827C1.95822 16.4348 1.90336 16.262 1.9 16.0845V13.9922C1.39609 13.9922 0.912816 13.7957 0.556497 13.4458C0.200178 13.0959 0 12.6214 0 12.1266V5.5969C0 5.1021 0.200178 4.62757 0.556497 4.27769C0.912816 3.92782 1.39609 3.73126 1.9 3.73126H12.35C12.8539 3.73126 13.3372 3.92782 13.6935 4.27769C14.0498 4.62757 14.25 5.1021 14.25 5.5969V12.1266C14.25 12.6214 14.0498 13.0959 13.6935 13.4458C13.3372 13.7957 12.8539 13.9922 12.35 13.9922H7.60285L3.4732 16.7711ZM15.2 9.34402C15.197 9.45873 15.197 9.57351 15.2 9.68822V9.34402ZM15.2 9.34402C15.2048 9.24421 15.2057 7.99423 15.2038 5.59503C15.203 4.85332 14.9024 4.14224 14.368 3.61804C13.8336 3.09383 13.1092 2.79938 12.3538 2.79938H4.75V1.86563C4.75 1.37084 4.95018 0.896305 5.3065 0.546431C5.66282 0.196557 6.14609 0 6.65 0L17.1 0C17.6039 0 18.0872 0.196557 18.4435 0.546431C18.7998 0.896305 19 1.37084 19 1.86563V8.39534C19 8.89014 18.7998 9.36467 18.4435 9.71454C18.0872 10.0644 17.6039 10.261 17.1 10.261V12.3533C17.0966 12.5307 17.0418 12.7036 16.9419 12.8515C16.842 12.9994 16.7012 13.1163 16.536 13.1883C16.3708 13.2604 16.1881 13.2847 16.0094 13.2584C15.8306 13.2321 15.6632 13.1563 15.5268 13.0398L15.2 12.8197V9.34402Z" fill="#C4BECD"/>
</svg>
