<svg width="17" height="15" viewBox="0 0 17 15" fill="none" xmlns="http://www.w3.org/2000/svg">
<path d="M3.1076 14.798C2.98556 14.9008 2.83577 14.9677 2.67583 14.9909C2.51589 15.0141 2.35242 14.9927 2.20464 14.9291C2.05685 14.8655 1.93086 14.7623 1.84148 14.6318C1.75209 14.5013 1.70301 14.3488 1.7 14.1922V12.3461C1.24913 12.3461 0.81673 12.1727 0.497919 11.8639C0.179107 11.5552 0 11.1365 0 10.6999V4.93844C0 4.50185 0.179107 4.08315 0.497919 3.77444C0.81673 3.46572 1.24913 3.29229 1.7 3.29229H11.05C11.5009 3.29229 11.9333 3.46572 12.2521 3.77444C12.5709 4.08315 12.75 4.50185 12.75 4.93844V10.6999C12.75 11.1365 12.5709 11.5552 12.2521 11.8639C11.9333 12.1727 11.5009 12.3461 11.05 12.3461H6.80255L3.1076 14.798ZM13.6 8.24472C13.5973 8.34594 13.5973 8.44721 13.6 8.54843V8.24472ZM13.6 8.24472C13.6042 8.15665 13.6051 7.05373 13.6034 4.93679C13.6027 4.28234 13.3338 3.65492 12.8556 3.19239C12.3775 2.72985 11.7293 2.47004 11.0534 2.47004H4.25V1.64615C4.25 1.20956 4.42911 0.790857 4.74792 0.482145C5.06673 0.173433 5.49913 0 5.95 0L15.3 0C15.7509 0 16.1833 0.173433 16.5021 0.482145C16.8209 0.790857 17 1.20956 17 1.64615V7.40766C17 7.84424 16.8209 8.26294 16.5021 8.57166C16.1833 8.88037 15.7509 9.0538 15.3 9.0538V10.9C15.297 11.0565 15.2479 11.209 15.1585 11.3395C15.0691 11.4701 14.9432 11.5732 14.7954 11.6368C14.6476 11.7004 14.4841 11.7218 14.3242 11.6986C14.1642 11.6754 14.0144 11.6085 13.8924 11.5057L13.6 11.3115V8.24472Z" fill="white"/>
</svg>
