<svg width="17" height="17" viewBox="0 0 17 17" fill="none" xmlns="http://www.w3.org/2000/svg">
<path d="M0.625 13.0937V16.3749H3.90625L13.5837 6.69744L10.3025 3.41619L0.625 13.0937ZM16.1212 2.92619L14.0737 0.878691C13.9928 0.797576 13.8966 0.733221 13.7908 0.689313C13.6849 0.645404 13.5715 0.622803 13.4569 0.622803C13.3423 0.622803 13.2288 0.645404 13.123 0.689313C13.0171 0.733221 12.9209 0.797576 12.84 0.878691L11.2387 2.47994L14.52 5.76119L16.1212 4.15994C16.2024 4.07899 16.2667 3.98284 16.3106 3.87699C16.3545 3.77114 16.3771 3.65766 16.3771 3.54307C16.3771 3.42847 16.3545 3.315 16.3106 3.20914C16.2667 3.10329 16.2024 3.00714 16.1212 2.92619Z" fill="white"/>
</svg>
