<svg width="24" height="24" viewBox="0 0 24 24" fill="none" xmlns="http://www.w3.org/2000/svg">
<g clip-path="url(#clip0_12_1128)">
<path d="M12 24C8.8174 24 5.76516 22.7357 3.51472 20.4853C1.26428 18.2348 0 15.1826 0 12C0 8.8174 1.26428 5.76516 3.51472 3.51472C5.76516 1.26428 8.8174 0 12 0C15.1826 0 18.2348 1.26428 20.4853 3.51472C22.7357 5.76516 24 8.8174 24 12C24 15.1826 22.7357 18.2348 20.4853 20.4853C18.2348 22.7357 15.1826 24 12 24ZM13.2705 11.7825C14.1019 11.4834 14.8011 10.9006 15.245 10.1366C15.6889 9.3727 15.849 8.47665 15.6972 7.60625C15.5454 6.73585 15.0914 5.94692 14.415 5.37837C13.7387 4.80981 12.8835 4.49809 12 4.49809C11.1165 4.49809 10.2613 4.80981 9.58495 5.37837C8.90865 5.94692 8.45462 6.73585 8.30281 7.60625C8.151 8.47665 8.31115 9.3727 8.75504 10.1366C9.19894 10.9006 9.89813 11.4834 10.7295 11.7825C8.2065 12.3915 6 14.6625 6 16.5C6 17.0925 6.2175 17.9925 7.5 17.9925H16.5C17.7825 17.9925 18 17.0925 18 16.5C18 14.664 15.795 12.39 13.2705 11.7825Z" fill="#BEACDD"/>
</g>
<defs>
<clipPath id="clip0_12_1128">
<rect width="24" height="24" fill="white"/>
</clipPath>
</defs>
</svg>
