<svg width="14" height="14" viewBox="0 0 14 14" fill="none" xmlns="http://www.w3.org/2000/svg">
<rect x="3.4259" y="0.898712" width="10" height="10" rx="5" transform="rotate(14.6383 3.4259 0.898712)" fill="#353040" stroke="#353040" stroke-width="2"/>
<path d="M8.31166 3.2085C8.21321 3.17976 8.10637 3.21662 8.04121 3.30182C7.97604 3.38702 7.96544 3.50368 8.01438 3.59717C8.37487 4.28581 8.48826 5.12142 8.27106 5.95296C7.82436 7.66319 6.14757 8.70626 4.52588 8.28268C4.31816 8.22842 4.12166 8.15284 3.93781 8.05878C3.84627 8.01194 3.73535 8.0284 3.65701 8.1005C3.57867 8.17255 3.54844 8.28594 3.58048 8.38749C3.96422 9.60414 4.90998 10.5883 6.1889 10.9223C8.21605 11.4518 10.312 10.148 10.8704 8.01019C11.4194 5.90803 10.2774 3.78231 8.31166 3.2085Z" fill="#FDBB38"/>
</svg>
